PathFileType	4	(X/Y/Z)	/home/abdul/Desktop/myosuite/custom_workspace/IK/output/S16_12_2.trc
DataRate	CameraRate	NumFrames	NumMarkers	Units	OrigDataRate	OrigDataStartFrame	OrigNumFrames
200.0	200.0	67	3	mm	200.0	161	1280
Frame#	Time	V_Shoulder			V_Elbow			V_Wrist		
		X1	Y1	Z1	X2	Y2	Z2	X3	Y3	Z3

161	0.8	-125.63099813513566	603.8574300951478	296.8091525640389	-269.3983500037356	463.2302750290033	50.82350622724716	-205.61810984754493	273.43077777487827	67.52905147169051
162	0.805	-125.35620213200463	603.3895398063378	296.920630434276	-269.1293570982539	462.2522197746617	51.177071220235874	-204.58748537629532	271.64507534776016	67.79567809964198
163	0.81	-125.08351214337166	602.9155576653898	297.0265743369809	-268.8495380737894	461.2746192422195	51.5187695974572	-203.54158810038558	269.8586650076705	68.03895484237904
164	0.815	-124.81298777165405	602.4356099828825	297.12697819387114	-268.55924430679556	460.29816029215266	51.848549626553535	-202.48124574791822	268.0729574866061	68.25896558550026
165	0.82	-124.54468356569022	601.9498290991384	297.22184636034723	-268.25884589589134	459.32352043035945	52.16638481294611	-201.40730561356452	266.28935079413566	68.45583799025277
166	0.825	-124.27864905349911	601.4583532694576	297.3111934786624	-267.9487305412948	458.3513666344823	52.47227335447445	-200.32063282243908	264.50922738733595	68.62974232595275
167	0.83	-124.01492878831725	600.9613265371336	297.39504430406646	-267.62930238093367	457.382354228258	52.76623752056012	-199.22210855784905	262.7339514221389	68.78089018866321
168	0.835	-123.75356240755417	600.4588985944116	297.4734335047132	-267.30098078785454	456.4171258061142	53.04832295999481	-198.11262825720593	260.9648660939626	68.90953311315373
169	0.84	-123.49458470426619	599.9512246316015	297.54640543620377	-266.9641991336392	455.4563102099695	53.31859794172095	-196.99309978046142	259.2032910749787	69.01596108545479
170	0.845	-123.23802571071046	599.4384651745792	297.6140138917167	-266.6194035226042	454.5005215599286	53.57715253321357	-195.86444155549367	257.4505200548278	69.10050096356403
171	0.85	-122.98391079350385	598.9207859109584	297.67632182875565	-266.26705150159955	453.5503583403036	53.8240977212845	-194.72758070492924	255.70781839102773	69.16351481406295
172	0.855	-122.73226075987817	598.3983575052399	297.7334010736137	-265.90761075024767	452.6064025421322	54.05956448031246	-193.58345115893613	253.97642087473815	69.2053981725598
173	0.86	-122.48309197448981	597.871355403283	297.7853320047227	-265.5415577564581	451.6692188631084	54.28370279305542	-192.43299175856896	252.25752961694553	69.2265782359892
174	0.865	-122.2364164862126	597.339959626479	297.83220321611617	-265.1693764820351	450.73935396559193	54.496680629324054	-191.27714435428112	250.55231205952538	69.22751199487087
175	0.87	-121.99224216431612	596.8043545560348	297.87411116229396	-264.79155702314966	449.8173357931207	54.698682887887244	-190.11685190424708	248.86189911502333	69.2086843136607
176	0.875	-121.75057284340613	596.2647287078095	297.91115978582667	-264.40859427038566	448.90367294561577	54.88991030704187	-188.95305657715733	247.18738343837617	69.17060596731778
177	0.88	-121.51140847648203	595.7212744981715	297.9434601290857	-264.02098657298785	447.9988541132411	55.070578349310885	-187.78669786415557	245.5298178331771	69.11381164216282
178	0.885	-121.27474529544759	595.1741880013784	297.9711299315242	-263.62923441183756	447.10334756866973	55.24091606573506	-186.61871070458955	243.89021379447314	69.03885790901771
179	0.89	-121.04057597839392	594.6236686990051	297.99429321397196	-263.23383908556616	446.2176007172975	55.40116494519648	-185.45002363023477	242.26954018947458	68.94632117649559
180	0.895	-120.8088898229604	594.0699192219707	298.0130798514325	-262.8353014140812	445.3420397047594	55.55157775415545	-184.2815569326296	240.66872207695934	68.8367956321556
181	0.9	-120.57967292506805	593.5131450857416	298.0276251358991	-262.43412046363164	444.477069080918	55.692417372099605	-183.114220858127	239.0886396655705	68.71089117905224
182	0.905	-120.35290836231276	592.9535544193068	298.0380693307193	-262.03079229737455	443.62307151933044	55.82395562789376	-181.94891383522446	237.5301274106365	68.56923137499363
183	0.91	-120.12857638129941	592.391357688546	298.0445572180537	-261.62580875523156	442.7804075910442	55.94647214208435	-180.78652073867718	235.993973248597	68.41245138158241
184	0.915	-119.90665458819701	591.826767414626	298.0472376409762	-261.2196562666337	441.9494155914326	56.060253180053245	-179.6279111948294	234.4809179675879	68.24119592984722
185	0.92	-119.68711814179501	591.2599978880818	298.0462630417675	-260.8128146995576	441.1304114186564	56.1655905207348	-178.4739379325198	232.99165471224006	68.05611730898558
186	0.925	-119.46993994834412	590.6912648792483	298.04178899794215	-260.4057562490472	440.3236885022226	56.26278034540823	-177.32543518381834	231.52682862026575	67.85787338443241
187	0.93	-119.25509085747252	590.120785345729	298.03397375754435	-259.9989443682029	439.52951778001636	56.35212215085606	-176.1832171387473	230.0870365879634	67.64712565114573
188	0.935	-119.04253985847606	589.5487771375911	298.02297777522375	-259.5928327443961	438.7481477220972	56.43391769094159	-175.04807645801418	228.67282716135026	67.42453732766329
189	0.94	-118.83225427629334	588.9754587009917	298.00896325058494	-259.1878643232437	437.979804399477	56.50846995040418	-173.92078284765122	227.28470054924733	67.19077149613571
190	0.945	-118.62419996649136	588.4010487809438	297.9920936702736	-258.78447038264426	437.22469159604714	56.576082154403956	-172.80208169930427	225.9231087542886	66.94648929318343
191	0.95	-118.418341508603	587.8257661239363	297.9725333552289	-258.38306965894515	436.4829909617693	56.63705681706828	-171.6926927997516	224.58845581750475	66.69234815606097
192	0.955	-118.21464239717852	587.2498291811238	297.9504470144946	-257.9840675270749	435.7548622052192	56.691694832003165	-170.59330911305682	223.28109817184796	66.42900012824289
193	0.96	-118.01306522993316	586.6734558128073	297.9259993069378	-257.58785523623976	435.0404433235496	56.7402946074362	-169.5045956385672	222.00134509977238	66.15709022817609
194	0.965	-117.81357189239776	586.0968629949181	297.89935441217574	-257.1948092025466	434.33985086793285	56.78315124835419	-168.42718834776684	220.74945928977058	65.87725488457261
195	0.97	-117.61612373850443	585.520266528221	297.8706756119606	-256.80529035968516	433.65318024254424	56.82055578769219	-167.36169320277537	219.5256574865866	65.5901204412498
196	0.975	-117.4206817665676	584.9438807509414	297.8401248832143	-256.4196435685657	432.98050603516066	56.852794468321136	-166.30868525905464	218.33011122967912	65.29630173416149
197	0.98	-117.22720679015008	584.3679182555203	297.80786250384716	-256.03819708658693	432.32188237747096	56.88014807727162	-165.2687078546425	217.16294767440024	64.99640074290768
198	0.985	-117.03565960333479	583.7925896101833	297.7740466724308	-255.66126209698152	431.6773433332251	56.9028913333235	-164.242271887981	216.02425049027693	64.69100531866117
199	0.99	-116.84600113995594	583.2181030860054	297.7388331427272	-255.2891322984712	431.0469033123875	56.92129232878568	-163.22985518614107	214.91406083073835	64.3806879901107
200	0.995	-116.65819262637717	582.6446643901351	297.70237487400897	-254.922083555251	430.43055750950384	56.93561202599033	-162.2319019649729	213.83237836862253	64.06600484869318
201	1.0	-116.47219572743946	582.0724764058301	297.6648216980332	-254.56037360711628	429.8282823645453	56.94610380873177	-161.24882238242674	212.7791623918128	63.747494514071455
202	1.005	-116.28797268523851	581.5017389399364	297.62632000345553	-254.2042418393495	429.2400360445463	56.953013088594204	-160.28099218599831	211.75433295340412	63.425677180513276
203	1.01	-116.10548645042718	580.9326484784243	297.5870124383964	-253.85390911179232	428.66575894441564	56.95657696583543	-159.3287524549533	210.75777207087617	63.10105374453985
204	1.015	-115.92470080577739	580.3653979505777	297.54703763179407	-253.50957764634722	428.1053742053654	56.957023944227224	-158.39240943768144	209.78932496885213	62.774105013940776
205	1.02	-115.74558048177414	579.8001765024038	297.5065299340991	-253.1714309719782	427.5587882494677	56.95457369899827	-157.47223448421948	208.84880136015028	62.44529099799729
206	1.025	-115.56809126405199	579.2371692798155	297.4656191777856	-252.8396339261174	427.02589132892	56.949436896783496	-156.56846407366976	207.93597675998507	62.115050278516634
207	1.03	-115.39220009252472	578.676557222104	297.42443045807386	-252.51433271122778	426.5065580886708	56.94181506625487	-155.6812999359234	207.05059382834523	61.783799461059544
208	1.035	-115.21787515209645	578.1185168662014	297.38308393417987	-252.1956550051266	426.0006481411257	56.931900517894874	-154.81090926678138	206.1923637357664	61.451932705537956
209	1.04	-115.04508595488166	577.5632201621967	297.3416946513241	-251.88371012353838	425.50800665172846	56.919876311175095	-153.95742503524713	205.36096754792152	61.11982133517404
210	1.045	-114.8738034138999	577.0108343005461	297.3003723836542	-251.57858923322	425.0284649342792	56.905916267219204	-153.12094638145024	204.55605762467323	60.78781352264217
211	1.05	-114.70399990824865	576.4615215513826	297.2592214981573	-251.28036561388285	424.56184105492105	56.890185024862895	-152.3015391033469	203.77725902946537	60.456234052063195
212	1.055	-114.5356493397948	575.9154391163021	297.2183408395557	-250.98909496703087	424.1079404437943	56.87283813787318	-151.49923623003411	203.02417094517557	60.12538415538598
213	1.06	-114.36872718146189	575.3727389929685	297.1778236361079	-250.7048157697358	423.66655651341864	56.85402221095619	-150.71403867921262	202.29636809280132	59.79554142157231
214	1.065	-114.20321051722495	574.833567852845	297.1377574261576	-250.4275496712836	423.2374712829279	56.83387507206635	-149.9459159960371	201.59340214961094	59.46695977689923
215	1.07	-114.03907807396003	574.2980669323314	297.0982240052015	-250.15730193054725	422.8204560073368	56.81252597843083	-149.19480717030626	200.91480316365235	59.13986953460601
216	1.075	-113.87631024532654	573.7663719375415	297.0592993931776	-249.8940618918736	422.4152718110757	56.79009585362075	-148.46062152866878	200.2600809617768	58.81447751204088
217	1.08	-113.7148891078948	573.2386129629286	297.02105382160215	-249.63780349721156	422.0216703250786	56.766697552935405	-147.74323969825556	199.6287265485994	58.49096721340493
218	1.085	-113.55479842975846	572.7149144239262	296.9835517401227	-249.38848583215847	421.63939432675284	56.74243615431707	-147.04251463789794	199.02021349408113	58.1694990761453
219	1.09	-113.39602367190192	572.1953950037333	296.9468518419888	-249.14605370356043	421.2681783822035	56.71740927198134	-146.35827273285287	198.43399930767478	57.8502107790176
220	1.095	-113.23855198261849	571.6801676143401	296.9110071078824	-248.9104382462677	420.90774949012075	56.69170738993134	-145.6903149487348	197.86952679723274	57.53321760981592
221	1.1	-113.08237218530006	571.1693393718505	296.87606486749456	-248.6815575566214	420.5578277267703	56.66541421252262	-145.03841804014826	197.3262254111204	57.218612890757925
222	1.105	-112.92747475994217	570.6630115861195	296.842066878181	-248.45931735023024	420.21812689155433	56.63860702925914	-144.4023358093288	196.8035125622182	56.90646845951031
223	1.11	-112.77385181872891	570.16127976469	296.80904941998034	-248.24361164158574	419.88835515263304	56.611357091027834	-143.78180040993027	196.30079493272427	56.59683520384654
224	1.115	-112.62149707608113	569.6642336309707	296.77704340623285	-248.0343234430622	419.5682156921159	56.58372999502065	-143.17652369095046	195.8174697588869	56.289743647941535
225	1.12	-112.47040581356809	569.171957156564	296.7460745089968	-247.8313254808504	419.25740735034435	56.55578607564629	-142.58619857565762	195.35292609500323	55.98520458832748
226	1.125	-112.32057484009685	568.6845286076158	296.7161632984205	-247.6344809253864	418.9556252687954	56.52758079879964	-142.01050047027667	194.90654605621165	55.68320977755825
227	1.13	-112.17200244780607	568.2020206050178	296.68732539519686	-247.4436441338513	418.66256153114534	56.49916515693362	-141.44908869710986	194.4777060397857	55.38373265365772
